<svg width="100" height="100" viewBox="0 0 100 100" fill="none" xmlns="http://www.w3.org/2000/svg">
<g clip-path="url(#clip0_3_4)">
<rect width="100" height="100" fill="white"/>
<path d="M3.96875 74.2344C3.8125 74.0781 3.73438 73.6875 3.73438 73.0625C3.73438 72.3333 3.8125 71.9688 3.96875 71.9688C4.4375 71.9688 5.0625 71.8906 5.84375 71.7344C6.625 71.526 7.35417 71.2917 8.03125 71.0312C8.76042 70.7708 9.20312 70.4844 9.35938 70.1719C9.72396 69.599 9.90625 67.151 9.90625 62.8281V33.2969C9.90625 31.7865 9.85417 30.4583 9.75 29.3125C9.69792 28.1667 9.56771 27.2552 9.35938 26.5781C9.25521 26.2656 8.83854 25.9792 8.10938 25.7188C7.43229 25.4583 6.67708 25.25 5.84375 25.0938C5.0625 24.9375 4.4375 24.8594 3.96875 24.8594C3.76042 24.8594 3.65625 24.5469 3.65625 23.9219C3.65625 23.2448 3.76042 22.8021 3.96875 22.5938C5.32292 22.6458 6.75521 22.6979 8.26562 22.75C9.82812 22.75 11.4948 22.75 13.2656 22.75L20.8438 22.6719C22.3542 22.6719 23.6042 22.6719 24.5938 22.6719C25.5833 22.6198 26.3385 22.5938 26.8594 22.5938C32.5365 22.5938 37.3802 23.7656 41.3906 26.1094C45.401 28.401 48.474 31.4479 50.6094 35.25C52.7448 39.0521 53.8125 43.2188 53.8125 47.75C53.8125 52.75 52.7188 57.2812 50.5312 61.3438C48.3958 65.4062 45.2969 68.6094 41.2344 70.9531C37.224 73.2969 32.4062 74.3906 26.7812 74.2344L21.2344 74.0781C19.6719 74.026 18.2396 74 16.9375 74C15.6354 73.9479 14.4635 73.9479 13.4219 74L3.96875 74.2344ZM28.0312 70.6406C40.0104 70.6406 46 62.9062 46 47.4375C46 43.4792 45.2969 39.8854 43.8906 36.6562C42.4844 33.4271 40.401 30.849 37.6406 28.9219C34.9323 26.9948 31.5469 26.0312 27.4844 26.0312H27.0938C21.4688 26.0312 18.3438 26.4479 17.7188 27.2812C17.0417 28.1667 16.7031 29.8073 16.7031 32.2031V63.1406C16.7031 65.276 17.0938 67.2552 17.875 69.0781C17.9792 69.3385 18.4219 69.5729 19.2031 69.7812C19.9844 69.9375 20.9219 70.0938 22.0156 70.25C23.1615 70.3542 24.2812 70.4583 25.375 70.5625C26.4688 70.6146 27.3542 70.6406 28.0312 70.6406ZM71.2094 74.4688C67.7719 74.4688 64.5427 73.7917 61.5219 72.4375C58.5531 71.0833 55.9229 69.2344 53.6312 66.8906C51.3917 64.5469 49.6208 61.8385 48.3187 58.7656C47.0687 55.6406 46.4437 52.3333 46.4437 48.8438C46.4437 45.1458 47.0948 41.6823 48.3969 38.4531C49.699 35.1719 51.5219 32.3073 53.8656 29.8594C56.2094 27.3594 58.9177 25.4062 61.9906 24C65.1156 22.5938 68.475 21.8906 72.0687 21.8906C75.7667 21.8906 81.9385 23.0625 90.5844 25.4062L90.8969 35.0938C90.8969 35.875 90.35 36.2656 89.2562 36.2656C88.7354 36.2656 88.3969 36.1354 88.2406 35.875C86.8344 28.7396 81.5219 25.1719 72.3031 25.1719C68.8656 25.1719 65.7667 26.1875 63.0062 28.2188C60.2458 30.25 58.0583 32.9844 56.4437 36.4219C54.8292 39.8594 54.0219 43.6615 54.0219 47.8281C54.0219 50.6927 54.5167 53.5312 55.5062 56.3438C56.5479 59.1042 57.9542 61.6042 59.725 63.8438C61.5479 66.0312 63.6833 67.8021 66.1312 69.1562C68.6312 70.4583 71.3135 71.1094 74.1781 71.1094C78.8135 71.1094 82.199 70.5365 84.3344 69.3906C84.699 69.2344 84.8812 68.8438 84.8812 68.2188L84.8031 61.8125V61.2656C84.8031 57.9323 84.5948 55.6927 84.1781 54.5469C84.074 54.1823 83.6312 53.8958 82.85 53.6875C82.0687 53.4271 81.2354 53.2188 80.35 53.0625C79.4646 52.9062 78.7354 52.8281 78.1625 52.8281C77.9542 52.8281 77.85 52.4896 77.85 51.8125C77.85 51.1875 77.9542 50.7708 78.1625 50.5625L88.3969 50.9531L96.8344 50.5625C96.9385 50.9792 96.9906 51.3438 96.9906 51.6562C96.9906 52.4375 96.8865 52.8281 96.6781 52.8281C96.4698 52.8281 96.0531 52.9062 95.4281 53.0625C94.8552 53.2188 94.2302 53.401 93.5531 53.6094C92.9281 53.8177 92.4594 54.026 92.1469 54.2344C91.626 54.599 91.3656 56.3438 91.3656 59.4688C91.3656 59.9896 91.3656 60.5625 91.3656 61.1875C91.4177 61.7604 91.4698 62.3594 91.5219 62.9844L91.6 65.0938C91.6 66.1354 91.7823 67.0469 92.1469 67.8281C92.5115 68.6094 92.6937 69.1302 92.6937 69.3906C92.6937 69.8073 92.0427 70.276 90.7406 70.7969C89.9073 71.2135 89.2042 71.5 88.6312 71.6562C88.0583 71.8125 87.6677 71.9427 87.4594 72.0469C87.199 72.151 86.626 72.3594 85.7406 72.6719C84.8552 72.9323 84.126 73.1146 83.5531 73.2188C82.1469 73.4792 80.8448 73.7135 79.6469 73.9219C78.449 74.0781 77.199 74.2083 75.8969 74.3125C74.5948 74.4167 73.0323 74.4688 71.2094 74.4688Z" fill="black"/>
</g>
<defs>
<clipPath id="clip0_3_4">
<rect width="100" height="100" fill="white"/>
</clipPath>
</defs>
</svg>
